{
  "accessors": [
    {
      "bufferView": 2,
      "componentType": 5126,
      "count": 65532,
      "max": [
        4.0456109046936035,
        3.563046932220459,
        3.4445130825042725
      ],
      "min": [
        -3.6094558238983154,
        -3.1649389266967773,
        -0.06125298887491226
      ],
      "type": "VEC3"
    },
    {
      "bufferView": 2,
      "byteOffset": 786384,
      "componentType": 5126,
      "count": 65532,
      "max": [
        0.9997475147247314,
        0.9999785423278809,
        0.9999999403953552
      ],
      "min": [
        -0.9999669790267944,
        -0.9999895691871643,
        -0.9999938607215881
      ],
      "type": "VEC3"
    },
    {
      "bufferView": 1,
      "componentType": 5126,
      "count": 65532,
      "max": [
        0.9985157251358032,
        0.9995115995407104
      ],
      "min": [
        0.00048828125,
        0.0014743400970473886
      ],
      "type": "VEC2"
    },
    {
      "bufferView": 0,
      "componentType": 5125,
      "count": 269430,
      "type": "SCALAR"
    },
    {
      "bufferView": 2,
      "byteOffset": 1572768,
      "componentType": 5126,
      "count": 57999,
      "max": [
        4.03764009475708,
        3.5283379554748535,
        3.416635036468506
      ],
      "min": [
        -3.533273935317993,
        -3.1446988582611084,
        -0.049295999109745026
      ],
      "type": "VEC3"
    },
    {
      "bufferView": 2,
      "byteOffset": 2268756,
      "componentType": 5126,
      "count": 57999,
      "max": [
        0.9999424815177917,
        0.9999840259552002,
        1.0
      ],
      "min": [
        -0.9999669790267944,
        -0.9999895691871643,
        -0.9999893307685852
      ],
      "type": "VEC3"
    },
    {
      "bufferView": 1,
      "byteOffset": 524256,
      "componentType": 5126,
      "count": 57999,
      "max": [
        0.9985339641571045,
        0.9995115995407104
      ],
      "min": [
        0.00048828125,
        0.0014720155159011483
      ],
      "type": "VEC2"
    },
    {
      "bufferView": 0,
      "byteOffset": 1077720,
      "componentType": 5125,
      "count": 169788,
      "type": "SCALAR"
    },
    {
      "bufferView": 2,
      "byteOffset": 2964744,
      "componentType": 5126,
      "count": 65532,
      "max": [
        4.045554161071777,
        3.5406980514526367,
        3.4169931411743164
      ],
      "min": [
        -3.5838139057159424,
        -3.143394947052002,
        -0.06125298887491226
      ],
      "type": "VEC3"
    },
    {
      "bufferView": 2,
      "byteOffset": 3751128,
      "componentType": 5126,
      "count": 65532,
      "max": [
        0.9999953508377075,
        0.9999840259552002,
        1.0
      ],
      "min": [
        -0.9997482299804688,
        -0.9999895691871643,
        -0.9999896883964539
      ],
      "type": "VEC3"
    },
    {
      "bufferView": 1,
      "byteOffset": 988248,
      "componentType": 5126,
      "count": 65532,
      "max": [
        1.9985114336013794,
        0.8808592557907104
      ],
      "min": [
        1.00048828125,
        0.0014230204978957772
      ],
      "type": "VEC2"
    },
    {
      "bufferView": 0,
      "byteOffset": 1756872,
      "componentType": 5125,
      "count": 174414,
      "type": "SCALAR"
    },
    {
      "bufferView": 2,
      "byteOffset": 4537512,
      "componentType": 5126,
      "count": 38556,
      "max": [
        4.038562774658203,
        3.1558449268341064,
        3.308797836303711
      ],
      "min": [
        -2.4851410388946533,
        -2.7243010997772217,
        -0.021723037585616112
      ],
      "type": "VEC3"
    },
    {
      "bufferView": 2,
      "byteOffset": 5000184,
      "componentType": 5126,
      "count": 38556,
      "max": [
        0.999728798866272,
        0.9994885325431824,
        0.9999715089797974
      ],
      "min": [
        -0.9999669790267944,
        -0.9996688961982727,
        -0.9999992847442627
      ],
      "type": "VEC3"
    },
    {
      "bufferView": 1,
      "byteOffset": 1512504,
      "componentType": 5126,
      "count": 38556,
      "max": [
        1.9985157251358032,
        0.8779295682907104
      ],
      "min": [
        1.00048828125,
        0.001372952596284449
      ],
      "type": "VEC2"
    },
    {
      "bufferView": 0,
      "byteOffset": 2454528,
      "componentType": 5125,
      "count": 84633,
      "type": "SCALAR"
    }
  ],
  "asset": {
    "extras": {
      "author": "Azad Balabanian (https://sketchfab.com/azadbal)",
      "license": "CC-BY-4.0 (http://creativecommons.org/licenses/by/4.0/)",
      "source": "https://sketchfab.com/3d-models/shephard-hut-rein-in-taufers-italy-845b1e8390cd4f05803a243f094d04ae",
      "title": "Shephard Hut - Rein in Taufers, Italy"
    },
    "generator": "Sketchfab-12.68.0",
    "version": "2.0"
  },
  "bufferViews": [
    {
      "buffer": 0,
      "byteLength": 2793060,
      "name": "floatBufferViews",
      "target": 34963
    },
    {
      "buffer": 0,
      "byteLength": 1820952,
      "byteOffset": 2793060,
      "byteStride": 8,
      "name": "floatBufferViews",
      "target": 34962
    },
    {
      "buffer": 0,
      "byteLength": 5462856,
      "byteOffset": 4614012,
      "byteStride": 12,
      "name": "floatBufferViews",
      "target": 34962
    }
  ],
  "buffers": [
    {
      "byteLength": 10076868,
      "uri": "scene.bin"
    }
  ],
  "extensionsUsed": [
    "KHR_materials_unlit"
  ],
  "images": [
    {
      "uri": "textures/Shephard_Hut_u1_v1_baseColor.jpeg"
    },
    {
      "uri": "textures/Shephard_Hut_u2_v1_baseColor.jpeg"
    }
  ],
  "materials": [
    {
      "doubleSided": true,
      "extensions": {
        "KHR_materials_unlit": {}
      },
      "name": "Shephard_Hut_u1_v1",
      "pbrMetallicRoughness": {
        "baseColorTexture": {
          "index": 0
        },
        "metallicFactor": 0.0
      }
    },
    {
      "doubleSided": true,
      "extensions": {
        "KHR_materials_unlit": {}
      },
      "name": "Shephard_Hut_u2_v1",
      "pbrMetallicRoughness": {
        "baseColorTexture": {
          "index": 1
        },
        "metallicFactor": 0.0
      }
    }
  ],
  "meshes": [
    {
      "name": "Shephard_Hut_Shephard_Hut_u1_v1_0",
      "primitives": [
        {
          "attributes": {
            "NORMAL": 1,
            "POSITION": 0,
            "TEXCOORD_0": 2
          },
          "indices": 3,
          "material": 0,
          "mode": 4
        }
      ]
    },
    {
      "name": "Shephard_Hut_Shephard_Hut_u1_v1_0",
      "primitives": [
        {
          "attributes": {
            "NORMAL": 5,
            "POSITION": 4,
            "TEXCOORD_0": 6
          },
          "indices": 7,
          "material": 0,
          "mode": 4
        }
      ]
    },
    {
      "name": "Shephard_Hut_Shephard_Hut_u2_v1_0",
      "primitives": [
        {
          "attributes": {
            "NORMAL": 9,
            "POSITION": 8,
            "TEXCOORD_0": 10
          },
          "indices": 11,
          "material": 1,
          "mode": 4
        }
      ]
    },
    {
      "name": "Shephard_Hut_Shephard_Hut_u2_v1_0",
      "primitives": [
        {
          "attributes": {
            "NORMAL": 13,
            "POSITION": 12,
            "TEXCOORD_0": 14
          },
          "indices": 15,
          "material": 1,
          "mode": 4
        }
      ]
    }
  ],
  "nodes": [
    {
      "children": [
        1
      ],
      "matrix": [
        0.9999882578849792,
        2.933866408470477e-16,
        -0.004840006120502949,
        0.0,
        0.004840006120502949,
        -2.2118641439698822e-16,
        0.9999882578849792,
        0.0,
        2.9231265828423515e-16,
        -1.0,
        -2.2260382327327993e-16,
        0.0,
        0.0009659497300162911,
        -3.38325834274292,
        0.39914995431899947,
        1.0
      ],
      "name": "Sketchfab_model"
    },
    {
      "children": [
        2
      ],
      "matrix": [
        1.0,
        0.0,
        0.0,
        0.0,
        0.0,
        -1.0,
        0.0,
        0.0,
        0.0,
        0.0,
        -1.0,
        0.0,
        0.0,
        0.0,
        0.0,
        1.0
      ],
      "name": "Shephard_Hut.fbx"
    },
    {
      "children": [
        3
      ],
      "name": "RootNode"
    },
    {
      "children": [
        4,
        5,
        6,
        7
      ],
      "name": "Shephard_Hut"
    },
    {
      "mesh": 0,
      "name": "Shephard_Hut_Shephard_Hut_u1_v1_0"
    },
    {
      "mesh": 1,
      "name": "Shephard_Hut_Shephard_Hut_u1_v1_0"
    },
    {
      "mesh": 2,
      "name": "Shephard_Hut_Shephard_Hut_u2_v1_0"
    },
    {
      "mesh": 3,
      "name": "Shephard_Hut_Shephard_Hut_u2_v1_0"
    }
  ],
  "samplers": [
    {
      "magFilter": 9729,
      "minFilter": 9987,
      "wrapS": 10497,
      "wrapT": 10497
    }
  ],
  "scene": 0,
  "scenes": [
    {
      "name": "Sketchfab_Scene",
      "nodes": [
        0
      ]
    }
  ],
  "textures": [
    {
      "sampler": 0,
      "source": 0
    },
    {
      "sampler": 0,
      "source": 1
    }
  ]
}
